<svg width="20" height="20" viewBox="0 0 20 20" fill="none" xmlns="http://www.w3.org/2000/svg">
<path opacity="0.4" d="M17.1833 7.04134C16.3083 3.19134 12.95 1.45801 9.99996 1.45801C9.99996 1.45801 9.99996 1.45801 9.99162 1.45801C7.04996 1.45801 3.68329 3.18301 2.80829 7.03301C1.83329 11.333 4.46662 14.9747 6.84996 17.2663C7.73329 18.1163 8.86662 18.5413 9.99996 18.5413C11.1333 18.5413 12.2666 18.1163 13.1416 17.2663C15.525 14.9747 18.1583 11.3413 17.1833 7.04134Z" fill="#808B9D"/>
<path d="M10 11.2168C11.4497 11.2168 12.625 10.0415 12.625 8.5918C12.625 7.14205 11.4497 5.9668 10 5.9668C8.55025 5.9668 7.375 7.14205 7.375 8.5918C7.375 10.0415 8.55025 11.2168 10 11.2168Z" fill="#808B9D"/>
</svg>
