<svg width="97" height="50" viewBox="0 0 97 50" fill="none" xmlns="http://www.w3.org/2000/svg">
<path fill-rule="evenodd" clip-rule="evenodd" d="M41.5887 14.2241L54.1196 19.4741C52.9277 22.2632 50.8198 24.5745 48.1356 26.0352C45.4515 27.4959 42.3477 28.0209 39.3246 27.5257C36.3015 27.0304 33.5353 25.5437 31.4721 23.3052C29.4088 21.0668 28.1688 18.207 27.9518 15.1871C27.7349 12.1672 28.5537 9.16305 30.2763 6.65914C31.9989 4.15522 34.5248 2.29744 37.4468 1.38532C40.3688 0.473199 43.5166 0.559907 46.3826 1.63146C49.2486 2.70302 51.6658 4.69697 53.2445 7.29182L41.6151 14.2137L41.5887 14.2241Z" fill="#FFED00"/>
<path fill-rule="evenodd" clip-rule="evenodd" d="M41.4148 9.44775C42.4118 9.44775 43.3864 9.73991 44.2153 10.2873C45.0442 10.8346 45.6902 11.6126 46.0714 12.5227C46.4527 13.4328 46.5522 14.4342 46.3573 15.4002C46.1624 16.3662 45.6819 17.2534 44.9766 17.9496C44.2712 18.6457 43.3727 19.1195 42.3948 19.311C41.4168 19.5026 40.4033 19.4032 39.4825 19.0256C38.5617 18.6479 37.7749 18.0089 37.2218 17.1894C36.6686 16.3699 36.374 15.4067 36.375 14.4217C36.3792 13.1029 36.9116 11.8394 37.856 10.9073C38.8004 9.97525 40.0799 9.4505 41.4148 9.44775Z" fill="white"/>
<path fill-rule="evenodd" clip-rule="evenodd" d="M41.6573 2.03662L42.6853 11.021L50.4347 5.71371L44.7307 12.7866L54.0037 14.4481L45.5267 14.9325L50.8934 22.5887L43.3495 16.9533L41.4411 26.646L40.4131 17.6616L32.6637 22.9637L38.3677 15.896L29.0947 14.2345L38.1885 13.2137L32.8166 5.56266L39.9756 11.1981L41.6573 2.03662Z" fill="white"/>
<path fill-rule="evenodd" clip-rule="evenodd" d="M44.8519 5.9637L44.4935 11.547L50.208 11.1564L45.6321 14.422L44.9732 15.3231L44.989 17.2502L45.7692 22.6668L41.6994 18.146L37.7087 22.6408L38.6049 17.1356L32.8956 17.5262L37.4662 14.2606L33.1487 10.547L38.7209 11.4325L38.3255 5.78662L41.6309 10.3075L44.8519 5.9637Z" fill="white"/>
<path fill-rule="evenodd" clip-rule="evenodd" d="M21.4032 41.3594L24.039 45.2813L23.6806 45.5312C23.5147 45.3415 23.2874 45.2145 23.0374 45.1719C22.5356 45.3193 22.0605 45.5443 21.6299 45.8385C20.3609 46.5999 19.0078 47.215 17.597 47.6719C16.328 48.0134 15.0162 48.1747 13.7012 48.151C10.7068 48.151 8.24668 47.4479 6.32073 46.0417C5.20409 45.2438 4.28785 44.2031 3.64268 43C2.88741 41.5886 2.50143 40.0131 2.51983 38.4167C2.47771 36.2696 3.19134 34.1746 4.53888 32.4896C6.56323 29.9688 9.62261 28.7066 13.717 28.7031C15.0245 28.6782 16.329 28.836 17.5917 29.1719C19.0033 29.6354 20.3578 30.2538 21.6299 31.0156C22.0612 31.3025 22.5365 31.5188 23.0374 31.6563C23.2879 31.6184 23.5162 31.4927 23.6806 31.3021L24.039 31.5469L21.4032 35.474L21.0289 35.224C21.0441 35.1012 21.0529 34.9778 21.0553 34.8542C21.052 34.7123 21.0195 34.5727 20.9597 34.4437C20.8998 34.3147 20.814 34.1992 20.7073 34.1042C20.3328 33.7715 19.9164 33.4879 19.4685 33.2604C17.8789 32.3581 16.0774 31.8839 14.2442 31.8854C12.0722 31.8854 10.3431 32.4062 9.04621 33.4948C8.33009 34.1055 7.7556 34.8614 7.36179 35.7112C6.96799 36.561 6.76412 37.4847 6.76412 38.4193C6.76412 39.3539 6.96799 40.2775 7.36179 41.1273C7.7556 41.9771 8.33009 42.7331 9.04621 43.3437C10.3431 44.4167 12.0757 44.9531 14.2442 44.9531C16.0774 44.9546 17.8789 44.4804 19.4685 43.5781C19.9168 43.3492 20.3332 43.0638 20.7073 42.7292C20.814 42.6341 20.8998 42.5186 20.9597 42.3896C21.0195 42.2607 21.052 42.121 21.0553 41.9792C21.053 41.8607 21.0442 41.7425 21.0289 41.625L21.4032 41.3594ZM27.8031 46.3542V30.4635C27.8172 30.2355 27.748 30.01 27.608 29.8281C27.4114 29.6491 27.1689 29.5266 26.9069 29.474V29.0312H32.8481V29.474C32.5839 29.5202 32.3397 29.6436 32.147 29.8281C32.007 30.01 31.9378 30.2355 31.9519 30.4635V46.3542C31.9345 46.5907 32.0079 46.825 32.1575 47.0104C32.3465 47.1934 32.5874 47.3151 32.8481 47.3594V47.8021H26.8858V47.3958C27.1478 47.3432 27.3903 47.2207 27.5869 47.0417C27.7293 46.855 27.7986 46.6238 27.782 46.3906L27.8031 46.3542ZM46.2542 32.1094V46.3542C46.2351 46.5876 46.3046 46.8197 46.4492 47.0052C46.6445 47.1832 46.885 47.3056 47.1451 47.3594V47.8021H41.2144V47.3958C41.4749 47.3433 41.7157 47.2208 41.9102 47.0417C42.0549 46.8561 42.1244 46.624 42.1053 46.3906V32.125H36.2009C35.9698 32.1086 35.7408 32.1772 35.5578 32.3177C35.3753 32.5049 35.2508 32.7399 35.1993 32.9948H34.7512V28.125H35.1993C35.2531 28.3874 35.381 28.6294 35.5683 28.8229C35.748 28.9618 35.9733 29.0304 36.2009 29.0156H52.148C52.3838 29.0311 52.6176 28.9628 52.8069 28.8229C52.9904 28.6282 53.1146 28.3863 53.1654 28.125H53.6135V32.9792H53.1654C53.1139 32.7243 52.9895 32.4893 52.8069 32.3021C52.6187 32.1601 52.3841 32.0915 52.148 32.1094H46.2542ZM60.5406 39.5573V44.7083H72.771C73.0002 44.7225 73.2269 44.654 73.4089 44.5156C73.592 44.322 73.7178 44.0824 73.7726 43.8229H74.2207V48.6875H73.8043C73.7482 48.4285 73.6226 48.1892 73.4405 47.9948C73.2585 47.8564 73.0319 47.788 72.8026 47.8021H55.5008V47.3958C55.7609 47.342 56.0013 47.2197 56.1967 47.0417C56.3535 46.8477 56.429 46.6016 56.4075 46.3542V30.4792C56.4232 30.2461 56.354 30.0152 56.2125 29.8281C56.0172 29.6501 55.7767 29.5278 55.5166 29.474V29.0312H72.4547C72.6866 29.0472 72.9161 28.9766 73.0978 28.8333C73.2788 28.6382 73.4043 28.3992 73.4616 28.1406H73.9097V32.9948H73.4616C73.405 32.7421 73.2791 32.5097 73.0978 32.3229C72.9161 32.1797 72.6866 32.109 72.4547 32.125H60.5458V36.5833H68.2637C68.4932 36.5999 68.7207 36.5312 68.9016 36.3906C69.0836 36.1983 69.2094 35.9606 69.2653 35.7031H69.7134V40.4583H69.2653C69.2082 40.2028 69.0826 39.9671 68.9016 39.776C68.7233 39.6299 68.4948 39.5571 68.2637 39.5729L60.5406 39.5573ZM82.2232 44.7083H93.9054C94.1413 44.7238 94.375 44.6554 94.5644 44.5156C94.7456 44.3213 94.8696 44.0818 94.9229 43.8229H95.371V48.6875H94.9229C94.8683 48.429 94.7445 48.1898 94.5644 47.9948C94.375 47.855 94.1413 47.7866 93.9054 47.8021H77.1782V47.3958C77.4387 47.3433 77.6795 47.2208 77.874 47.0417C78.0186 46.8561 78.0882 46.624 78.0691 46.3906V30.4792C78.0872 30.2459 78.0177 30.0141 77.874 29.8281C77.6795 29.6491 77.4387 29.5265 77.1782 29.474V29.0312H83.1195V29.474C82.8543 29.5177 82.6094 29.6414 82.4183 29.8281C82.2767 30.0152 82.2076 30.2461 82.2232 30.4792V44.724V44.7083Z" fill="#9D9D9C"/>
</svg>
