<svg width="74" height="46" viewBox="0 0 74 46" fill="none" xmlns="http://www.w3.org/2000/svg">
<g clip-path="url(#clip0_112_693)">
<path d="M2.5625 32.2729C2.5625 32.2729 1.27222 32.2729 1.27222 33.57V34.5877C1.27222 34.5877 1.27222 35.8843 2.5625 35.8843H70.6572C70.6572 35.8843 71.9482 35.8843 71.9482 34.5877V33.57C71.9482 33.57 71.9482 32.2729 70.6572 32.2729H2.5625Z" fill="#F49F0D"/>
<path d="M24.1012 17.8953C24.1012 11.4484 18.3122 6.63659 12.0636 6.62061C5.81521 6.63659 0 11.4484 0 17.8953C0 24.336 5.80896 29.1851 12.0252 29.1996C18.2418 29.1852 24.1012 24.336 24.1012 17.8953ZM20.0541 17.9247C20.0541 22.291 16.5474 25.889 12.0754 25.9045C7.60343 25.889 4.04661 22.2908 4.04661 17.9247C4.04661 13.6495 7.60163 10.0437 12.0555 10.0269C16.5093 10.0437 20.0541 13.6494 20.0541 17.9247Z" fill="#F49F0D"/>
<path d="M73.3332 17.8953C73.3332 11.4484 67.5449 6.63659 61.2959 6.62061C55.0477 6.63659 49.2322 11.4484 49.2322 17.8953C49.2322 24.336 55.0419 29.1851 61.2577 29.1996C67.4743 29.1852 73.3332 24.336 73.3332 17.8953ZM69.2859 17.9247C69.2859 22.291 65.7805 25.889 61.308 25.9045C56.8358 25.889 53.2794 22.2908 53.2794 17.9247C53.2794 13.6495 56.8343 10.0437 61.2881 10.0269C65.7408 10.0437 69.2859 13.6494 69.2859 17.9247Z" fill="#F49F0D"/>
<path d="M47.2421 12.8751C47.2421 9.14555 44.676 7.91162 40.8805 7.91162L27.9277 7.91556C26.9741 7.91556 26.1916 8.70529 26.1832 9.66145L26.1748 26.2015C26.1748 27.1652 26.9151 27.936 27.9301 27.936L41.1596 27.9344C44.759 27.9344 48.192 26.1953 48.192 22.1293C48.192 19.6334 46.9634 17.7541 44.5365 17.0536C46.2666 16.212 47.2421 14.8381 47.2421 12.8751ZM43.2531 13.6327C43.2531 15.3152 42.1084 16.0157 40.5735 16.0157H30.4327V11.3329H40.2387C41.8012 11.333 43.2531 11.7254 43.2531 13.6327ZM44.0615 21.8771C44.0615 23.9515 42.555 24.5132 40.8257 24.5132H30.4327V19.0165H40.9087C42.7787 19.0165 44.0615 19.8298 44.0615 21.8771Z" fill="#F49F0D"/>
<path d="M2.63333 0C2.63333 0 1.34326 -5.08057e-07 1.34326 1.29721V2.31474C1.34326 2.31474 1.34326 3.61132 2.63333 3.61132H70.6571C70.6571 3.61132 71.948 3.61132 71.948 2.31474V1.29721C71.948 1.29721 71.948 0 70.6571 0H2.63333Z" fill="#F49F0D"/>
<path d="M1.27222 45.3331H6.22979C7.12051 45.3331 7.77927 45.1 7.77927 43.9797C7.77927 43.2112 7.52696 42.845 6.8472 42.76V42.7389C7.28186 42.6123 7.59714 42.4431 7.59714 41.5691C7.59714 40.569 6.99414 40.231 5.75316 40.231H1.27222V45.3331ZM2.8289 43.31H5.61979C5.95617 43.31 6.18081 43.3875 6.18081 43.733C6.18081 44.0287 5.95606 44.106 5.61979 44.106H2.8289V43.31ZM2.8289 41.4568H5.5847C5.87231 41.4568 6.04056 41.5621 6.04056 41.8583C6.04056 42.147 5.87242 42.2535 5.5847 42.2535H2.8289V41.4568ZM8.71917 45.3331H14.3638V44.1059H10.2757V43.2882H14.0619V42.2318H10.2757V41.4143H14.2724V40.2311H8.71917V45.3331ZM14.7911 41.4986H16.979V45.3331H18.5359V41.4986H20.7236V40.2311H14.7911V41.4986ZM20.0503 41.4986H22.2382V45.3331H23.7947V41.4986H25.9826V40.2311H20.0503V41.4986ZM26.5924 45.3331H32.237V44.1059H28.149V43.2882H31.9353V42.2318H28.149V41.4143H32.146V40.2311H26.5924V45.3331ZM34.7334 41.4986H37.1666C37.657 41.4986 37.8818 41.5828 37.8818 42.0345V42.2041C37.8818 42.57 37.7266 42.7389 37.3065 42.7389H34.7334V41.4986ZM33.1766 45.3331H34.7335V44.0076H37.1808C37.6645 44.0076 37.8189 44.1842 37.8189 44.7189V45.3332H39.3752V44.4656C39.3752 43.6268 38.9897 43.4228 38.5267 43.3382V43.3249C39.2423 43.1548 39.397 42.7538 39.397 42.0698V41.7454C39.397 40.8295 39.0735 40.2311 37.8746 40.2311H33.1768V45.3331H33.1766ZM40.4481 45.3331H41.9623V41.6685H41.9763L44.0174 45.3331H45.1813L47.2221 41.6685H47.2353V45.3331H48.7508V40.2311H46.3588L44.599 43.5144L42.8396 40.2311H40.4481V45.3331ZM49.0242 45.3331H50.7629L51.2177 44.4309H54.3733L54.8573 45.3331H56.5893L53.7991 40.231H51.772L49.0242 45.3331ZM52.7822 41.4144L53.7921 43.3315H51.8009L52.7822 41.4144ZM57.0033 45.3331H58.5604V41.6259H58.5737L61.4984 45.3331H63.9098V40.2311H62.3535V43.9375H62.3395L59.4159 40.2311H57.0032V45.3331H57.0033ZM64.9618 45.3331H66.5189V41.6259H66.5326L69.4574 45.3331H71.8687V40.2311H70.312V43.9375H70.2979L67.374 40.2311H64.9618V45.3331Z" fill="black"/>
</g>
<defs>
<clipPath id="clip0_112_693">
<rect width="73.3333" height="45.3333" fill="white"/>
</clipPath>
</defs>
</svg>
