<svg width="137" height="38" viewBox="0 0 137 38" fill="none" xmlns="http://www.w3.org/2000/svg">
<path d="M98.3398 31.7202L100.628 20.2215L135.617 12.5122L98.3398 31.7202Z" fill="#E2001A"/>
<path d="M38.993 4.27979L36.7052 15.7785L1.04321 23.7491L38.993 4.27979Z" fill="#E2001A"/>
<path d="M53.1233 30.5443L63.3509 28.1923L64.1583 24.4029L59.0445 25.5789L59.852 21.7896L64.8312 20.6136L65.6386 16.8243L60.5248 18.0003L61.3323 14.2109L66.4461 13.0349L67.1189 9.24561L57.0259 11.5976L53.1233 30.5443Z" fill="#E2001A"/>
<path d="M66.7151 27.5387L71.8289 26.3627L73.4438 18.7841L76.8081 18.0001L75.3278 25.5787L80.307 24.4027L84.2097 5.45605L79.0959 6.63205L77.6155 14.2107L74.1166 14.9947L75.7315 7.41605L70.6177 8.46139L66.7151 27.5387Z" fill="#E2001A"/>
<path d="M83.8059 23.6185L88.9197 22.5732L90.6692 13.1652L92.284 21.7892L97.3978 20.6132L101.166 1.6665L96.0521 2.8425L94.1681 11.9892L92.6878 3.6265L87.574 4.67184L83.8059 23.6185Z" fill="#E2001A"/>
<path d="M47.3364 18.9148C47.6056 17.6081 47.0673 17.3468 45.9907 17.6081L44.3758 18.0001L42.088 29.3681L43.8375 28.9761C44.9141 28.7148 45.5869 28.5841 45.8561 27.2774L47.3364 18.9148ZM47.8747 13.5574C51.239 12.7734 52.9885 14.8641 52.5848 17.3468L50.297 28.4534C49.7587 31.3281 48.0093 31.7201 43.4338 32.7654L36.0322 34.4641L39.9349 15.3868L47.8747 13.5574Z" fill="#E2001A"/>
</svg>
