<svg width="79" height="40" viewBox="0 0 79 40" fill="none" xmlns="http://www.w3.org/2000/svg">
<g clip-path="url(#clip0_112_709)">
<path fill-rule="evenodd" clip-rule="evenodd" d="M0.900391 3.9624H28.2115V27.211C27.9883 32.3163 23.2829 36.7245 18.0244 36.646C12.4264 36.5576 6.38201 32.4341 6.66337 26.8281V15.3315H16.0646V25.542C16.1422 27.0147 18.7909 27.211 18.8588 25.542V13.2697H0.900391V3.9624Z" fill="#312783"/>
<path fill-rule="evenodd" clip-rule="evenodd" d="M44.9084 4.15869H69.9783C74.1502 4.30596 78.1475 8.86142 78.031 14.7619C77.9243 20.0243 73.0345 24.3638 69.8619 24.138H57.1136V15.4983L66.3304 15.6553C66.9902 15.6553 68.0768 15.6553 68.0671 14.1827C68.0671 13.0634 66.8737 12.7984 66.3789 12.7984L54.5716 12.602L54.5037 35.7917H44.9084V4.15869Z" fill="#312783"/>
<path fill-rule="evenodd" clip-rule="evenodd" d="M38.0104 0.555664L28.2114 18.1689L34.3043 18.1787L34.3334 29.1845L30.2294 29.1256L36.1767 39.6601L41.7845 29.1747L37.5059 29.4103L44.9085 14.605L38.0104 14.5166V0.555664Z" fill="#312783"/>
</g>
<defs>
<clipPath id="clip0_112_709">
<rect width="77.958" height="40" fill="white" transform="translate(0.351318)"/>
</clipPath>
</defs>
</svg>
