<svg width="18" height="22" viewBox="0 0 18 22" fill="none" xmlns="http://www.w3.org/2000/svg">
<path d="M14 4H4V6H14V4Z" fill="#B3BBC9"/>
<path d="M4 8H6V10H4V8Z" fill="#B3BBC9"/>
<path d="M6 12H4V14H6V12Z" fill="#B3BBC9"/>
<path d="M4 16H6V18H4V16Z" fill="#B3BBC9"/>
<path d="M10 8H8V10H10V8Z" fill="#B3BBC9"/>
<path d="M8 12H10V14H8V12Z" fill="#B3BBC9"/>
<path d="M10 16H8V18H10V16Z" fill="#B3BBC9"/>
<path d="M12 8H14V10H12V8Z" fill="#B3BBC9"/>
<path d="M14 12H12V18H14V12Z" fill="#B3BBC9"/>
<path fill-rule="evenodd" clip-rule="evenodd" d="M0 2C0 0.89543 0.895431 0 2 0H16C17.1046 0 18 0.895431 18 2V20C18 21.1046 17.1046 22 16 22H2C0.89543 22 0 21.1046 0 20V2ZM2 2H16V20H2V2Z" fill="#B3BBC9"/>
</svg>
