<svg width="14" height="14" viewBox="0 0 14 14" fill="none" xmlns="http://www.w3.org/2000/svg">
<path d="M13.8037 1.24296L12.8366 0.287367C12.5749 0.0256847 12.1426 0.0256847 11.8695 0.287367L7.04548 5.11131L2.13052 0.196347C1.86872 -0.065449 1.43638 -0.065449 1.16343 0.196347L0.196347 1.16343C-0.065449 1.42511 -0.065449 1.85746 0.196347 2.13052L5.10004 7.03421L0.287367 11.8696C0.0256847 12.1313 0.0256847 12.5637 0.287367 12.8367L1.25445 13.8038C1.51614 14.0655 1.94848 14.0655 2.22154 13.8038L7.04548 8.97976L11.8695 13.8038C12.1312 14.0655 12.5636 14.0655 12.8366 13.8038L13.8037 12.8367C14.0654 12.575 14.0654 12.1427 13.8037 11.8696L8.96828 7.04559L13.7923 2.22165C14.0654 1.94837 14.0654 1.51602 13.8037 1.24296Z" fill="#000"/>
</svg>
