<svg width="12" height="16" viewBox="0 0 12 16" fill="none" xmlns="http://www.w3.org/2000/svg">
<path fill-rule="evenodd" clip-rule="evenodd" d="M7 0C7.26522 0 7.51957 0.105357 7.70711 0.292893L11.7071 4.29289C11.8946 4.48043 12 4.73478 12 5V13C12 14.6569 10.6569 16 9 16H3C1.34315 16 0 14.6569 0 13V3C0 1.34315 1.34315 0 3 0H7ZM5.999 2H3C2.44772 2 2 2.44772 2 3V13C2 13.5523 2.44772 14 3 14H9C9.55229 14 10 13.5523 10 13V6H7C6.48716 6 6.06449 5.61396 6.00673 5.11662L6 5L5.999 2Z" fill="#B3BBC9"/>
</svg>
