<svg width="18" height="18" viewBox="0 0 18 18" fill="none" xmlns="http://www.w3.org/2000/svg">
<path fill-rule="evenodd" clip-rule="evenodd" d="M0 6C0 2.6863 2.68629 0 6 0H12.0001C15.3138 0 18.0001 2.68629 18.0001 6V12.0001C18.0001 15.3138 15.3138 18.0001 12.0001 18.0001H6C2.6863 18.0001 0 15.3138 0 12.0001V6ZM5.25073 9.00002C5.25073 6.92894 6.92967 5.25 9.00075 5.25C11.0718 5.25 12.7508 6.92894 12.7508 9.00002C12.7508 11.0711 11.0718 12.75 9.00075 12.75C6.92967 12.75 5.25073 11.0711 5.25073 9.00002ZM13.6874 2.25001C12.9626 2.25001 12.3749 2.83764 12.3749 3.56252C12.3749 4.28739 12.9626 4.87502 13.6874 4.87502C14.4123 4.87502 14.9999 4.28739 14.9999 3.56252C14.9999 2.83764 14.4123 2.25001 13.6874 2.25001Z" fill="url(#paint0_linear_142_1304)"/>
<defs>
<linearGradient id="paint0_linear_142_1304" x1="1.51053" y1="16.4894" x2="16.4896" y2="1.51051" gradientUnits="userSpaceOnUse">
<stop stop-color="#FFD600"/>
<stop offset="0.5" stop-color="#FF0100"/>
<stop offset="1" stop-color="#D800B9"/>
</linearGradient>
</defs>
</svg>
