<svg width="64" height="84" viewBox="0 0 64 84" fill="none" xmlns="http://www.w3.org/2000/svg">
<g clip-path="url(#clip0_301_734)">
<path fill-rule="evenodd" clip-rule="evenodd" d="M61.717 73.5954C61.7314 73.1928 61.7086 72.7897 61.6491 72.3913C61.5981 72.2217 61.5218 72.1284 61.3775 72.1284C61.2332 72.1284 61.1653 72.2047 61.0889 72.3489C61.0112 72.7596 60.9799 73.1777 60.9956 73.5954V79.9637C60.9796 80.4537 61.0023 80.9442 61.0635 81.4306C61.1144 81.6002 61.2162 81.6935 61.352 81.6935C61.4878 81.6935 61.6236 81.6002 61.6491 81.3798C61.7088 80.879 61.7315 80.3745 61.717 79.8704V73.5954ZM63.9999 78.0896C63.9999 79.4634 64 80.4216 63.9321 80.9727C63.9089 81.5129 63.7791 82.0431 63.5501 82.533C63.3685 82.9757 63.0581 83.3538 62.659 83.6184C62.2706 83.8716 61.8158 84.0044 61.352 84C60.9104 84.0048 60.4769 83.8811 60.1044 83.6438C59.7041 83.3739 59.3868 82.9981 59.1879 82.5584C58.966 82.0736 58.8283 81.5546 58.7805 81.0236C58.738 80.4724 58.7126 79.4803 58.7126 78.0896V75.7323C58.7126 74.3925 58.7126 73.4004 58.7805 72.8492C58.8187 72.3103 58.9508 71.7823 59.1709 71.2889C59.3595 70.8625 59.6511 70.4895 60.0196 70.2035C60.4107 69.9661 60.8605 69.8427 61.3181 69.8474C61.7682 69.8327 62.2129 69.9475 62.5996 70.1781C62.9746 70.4575 63.2677 70.8323 63.4483 71.2635C63.6901 71.741 63.8289 72.2638 63.8557 72.7983C63.8981 73.3749 63.9236 74.3416 63.9236 75.7323L63.9999 78.0896ZM55.513 72.4422V75.9019H55.6828C55.7708 75.9137 55.8604 75.897 55.9383 75.8543C56.0161 75.8116 56.0783 75.745 56.1156 75.6644C56.2366 75.3514 56.2859 75.0153 56.2599 74.6808V73.5445C56.2891 73.2403 56.2394 72.9336 56.1156 72.6541C55.9883 72.51 55.8016 72.4422 55.4876 72.4422H55.513ZM53.2046 70.1102H55.5385C56.0311 70.0818 56.5238 70.1629 56.9813 70.3477C57.296 70.4762 57.5588 70.706 57.7281 71.0006C57.9086 71.319 58.0213 71.6712 58.0591 72.0351C58.1443 72.656 58.1784 73.2827 58.1609 73.9091V75.0878C58.1739 75.7337 58.117 76.3791 57.9912 77.0127C57.8915 77.3847 57.6591 77.7075 57.3377 77.92C56.9857 78.1588 56.5661 78.2777 56.1411 78.2592H55.513V83.7117H53.2046V70.1102ZM52.6953 70.1102V72.8237H51.329V83.7117H49.0629V72.8237H47.6965V70.1102H52.6953ZM42.1376 70.1102H44.4121V75.851C44.8449 75.851 45.0571 75.444 45.0571 74.7232L45.108 72.0775C45.0631 71.3989 45.1978 70.7204 45.4984 70.1102H47.5862C47.3257 70.758 47.2267 71.4593 47.2977 72.1538V74.4858C47.2977 75.9019 46.7969 76.699 45.7615 76.8855C46.7969 77.106 47.2977 77.92 47.2977 79.3616V81.507C47.2408 82.2539 47.339 83.0045 47.5862 83.7117H45.4984C45.1728 83.1102 45.0367 82.4245 45.108 81.7444V79.0733C45.122 78.797 45.0541 78.5227 44.9128 78.2847C44.8642 78.195 44.7917 78.1207 44.7033 78.0698C44.6149 78.0189 44.5141 77.9935 44.4121 77.9964V83.7371H42.1291L42.1376 70.1102ZM37.5207 70.1102H41.3398V72.8237H39.8037V75.3676H41.221V77.9964H39.8037V80.9727H41.5011V83.6862H37.5377L37.5207 70.1102ZM36.6041 83.6778H34.2957V72.8237H33.6422V80.5403C33.6777 81.2707 33.5888 82.0019 33.3791 82.7026C33.3228 82.8931 33.2241 83.0683 33.0904 83.2152C32.9566 83.362 32.7913 83.4767 32.6068 83.5506C32.0697 83.6729 31.5194 83.727 30.9688 83.7117H30.6123V81.3882C30.8179 81.4064 31.0231 81.3492 31.1895 81.2271C31.325 80.8824 31.3745 80.5099 31.3337 80.1417V70.1102H36.6041V83.6778ZM30.1116 79.9806C30.1888 80.9793 29.9798 81.9794 29.509 82.8637C29.2911 83.1661 29.0002 83.4085 28.6634 83.5686C28.3266 83.7287 27.9548 83.8013 27.5825 83.7795C27.2038 83.8163 26.8221 83.7535 26.4752 83.5973C26.1283 83.4411 25.8283 83.197 25.605 82.8892C25.1267 81.9466 24.921 80.8894 25.011 79.8365V78.8443H27.1921V80.9388C27.1921 81.4646 27.3194 81.7868 27.557 81.7868C27.7947 81.7868 27.8456 81.6681 27.8711 81.473C27.9265 80.9549 27.9435 80.4334 27.922 79.9128V77.6741H26.6659V75.656H27.922V73.3495C27.9392 73.0433 27.9222 72.7361 27.8711 72.4337C27.869 72.3987 27.8598 72.3644 27.8439 72.3332C27.828 72.3019 27.8058 72.2742 27.7787 72.2519C27.7516 72.2296 27.7202 72.2132 27.6864 72.2036C27.6527 72.194 27.6173 72.1915 27.5825 72.1962C27.3194 72.1962 27.1921 72.4591 27.1921 72.9933V74.5536H25.011V73.3325C24.9123 72.4309 25.1057 71.5214 25.5626 70.7377C25.8107 70.4792 26.1151 70.2812 26.4521 70.1591C26.7892 70.037 27.1498 69.9942 27.5061 70.0339C27.876 70.0055 28.2473 70.0679 28.5875 70.2157C28.9278 70.3635 29.2266 70.5922 29.4581 70.8819C29.9371 71.6217 30.1661 72.4955 30.1116 73.3749V79.9806Z" fill="#E30016"/>
<path fill-rule="evenodd" clip-rule="evenodd" d="M22.5074 21.0042V83.7541H16.1507V35.0127L13.6046 64.2168H9.08105L6.40767 35.6911V64.2168H0.0594482V20.9703H9.46298C9.72607 23.5142 10.0146 26.6178 10.3117 30.1284L11.3471 41.152L13.0445 20.9618L22.5074 21.0042Z" fill="#102A83"/>
<path fill-rule="evenodd" clip-rule="evenodd" d="M39.8462 39.3882C40.9385 39.9779 41.7775 40.9459 42.2056 42.1102C42.7318 43.3822 43.0033 46.3501 43.0033 50.9546C43.0745 53.6444 42.8151 56.3327 42.231 58.9594C41.8523 60.641 40.9308 62.1516 39.6086 63.2586C38.1256 64.2701 36.3624 64.7913 34.5673 64.7487C32.7722 64.7061 31.0357 64.1019 29.6025 63.0212C28.3308 61.9088 27.4403 60.4259 27.0564 58.7813C26.5818 55.9211 26.3885 53.0214 26.4793 50.1236V46.7317H33.4301V53.7698C33.394 54.9612 33.4679 56.1534 33.6507 57.3313C33.6934 57.5504 33.8141 57.7467 33.9904 57.8839C34.1667 58.021 34.3867 58.0898 34.6098 58.0775C34.8818 58.0854 35.1468 57.9901 35.3515 57.8107C35.5561 57.6314 35.6853 57.3814 35.7131 57.1108C35.9447 55.4567 36.0271 53.7851 35.9592 52.1163V49.106C36.0242 47.8931 35.9011 46.6774 35.5942 45.5021C35.5304 45.1891 35.4014 44.8931 35.2157 44.6331C35.0301 44.373 34.7918 44.1549 34.5164 43.9927C33.6391 43.6752 32.7069 43.5368 31.7751 43.5857V37.2938C32.818 37.3619 33.8649 37.2558 34.8729 36.98C35.1008 36.8452 35.2954 36.6609 35.4423 36.4407C35.5892 36.2205 35.6846 35.9701 35.7215 35.708C35.9215 34.6863 36.0041 33.645 35.9677 32.6045V30.2047C36.0264 29.2008 35.929 28.194 35.6791 27.2199C35.6165 27.0062 35.4849 26.8192 35.3048 26.688C35.1247 26.5568 34.9063 26.4888 34.6835 26.4947C34.4607 26.5005 34.2461 26.5797 34.0731 26.7201C33.9002 26.8605 33.7785 27.0541 33.7271 27.2707C33.4774 28.3313 33.3802 29.422 33.4386 30.51V34.046H26.4878V30.3658C26.4878 26.2334 27.0903 23.4464 28.2955 22.0048C29.5176 20.5633 31.4696 19.8425 34.1175 19.8425C37.5123 19.8425 39.7189 20.8262 40.9071 22.8443C42.0952 24.8625 42.6808 27.6523 42.6808 31.2392C42.7712 33.0074 42.5529 34.7778 42.0358 36.4712C41.5589 37.6097 40.8065 38.612 39.8462 39.3882Z" fill="#102A83"/>
<path fill-rule="evenodd" clip-rule="evenodd" d="M46.3727 0.0423965L53.612 0.18655L53.7478 39.2441C55.1227 39.2441 55.8441 38.023 55.8865 35.7165L56.0308 27.2368C56.0817 24.1333 56.4637 22.0472 57.2105 20.9364H63.9322C63.2787 21.9964 62.9477 24.1587 62.9731 27.4488V34.9025C62.9731 39.3713 61.3606 41.9491 58.0677 42.5342C61.3606 43.1391 62.9958 45.7282 62.9731 50.3016V57.1787C62.9731 60.4434 63.2787 62.7753 63.9322 64.166H57.219C56.4297 63.0891 56.0393 60.9691 56.0393 57.874V49.3943C56.0752 48.504 55.8574 47.6219 55.4113 46.8504C55.2371 46.5516 54.9901 46.3017 54.6934 46.1238C54.3966 45.9459 54.0597 45.8458 53.7139 45.8328L53.663 64.149H46.3981L46.3727 0.0423965Z" fill="#102A83"/>
<path fill-rule="evenodd" clip-rule="evenodd" d="M16.0573 4.32465L16.2015 4.24833C16.5098 4.10535 16.8309 3.99179 17.1606 3.90914C17.5069 3.81516 17.8628 3.76111 18.2214 3.74803C19.23 3.66267 20.2416 3.87411 21.1314 4.35629C22.0212 4.83847 22.7502 5.5703 23.2287 6.46154L23.3475 6.65657L23.3985 6.80073L23.9501 8.04724C24.3066 8.62386 25.0025 8.89522 26.2076 8.38643L44.4121 0.0932732L27.5231 12.6348C26.9979 12.957 26.425 13.1946 25.8257 13.3386C24.8184 13.5833 23.7612 13.5243 22.7874 13.169C21.8401 12.8246 21.0241 12.1931 20.4535 11.3628C20.2124 11.0085 20.0263 10.6196 19.9018 10.2096L19.5199 9.3616C19.3475 8.99599 19.0457 8.70708 18.6728 8.55052C18.2998 8.39396 17.8821 8.38081 17.5 8.51362L0.0339355 16.3065L16.0573 4.32465Z" fill="#E30016"/>
<path d="M16.0573 4.32465L16.2015 4.24833C16.5098 4.10535 16.8309 3.99179 17.1606 3.90914C17.5069 3.81516 17.8628 3.76111 18.2214 3.74803C19.23 3.66267 20.2416 3.87411 21.1314 4.35629C22.0212 4.83847 22.7502 5.5703 23.2287 6.46154L23.3475 6.65657L23.3985 6.80073L23.9501 8.04724C24.3066 8.62386 25.0025 8.89522 26.2076 8.38643L44.4121 0.0932732L27.5231 12.6348C26.9979 12.957 26.425 13.1946 25.8257 13.3386C24.8184 13.5833 23.7612 13.5243 22.7874 13.169C21.8401 12.8246 21.0241 12.1931 20.4535 11.3628C20.2124 11.0085 20.0263 10.6196 19.9018 10.2096L19.5199 9.36159C19.3475 8.99599 19.0457 8.70708 18.6728 8.55052C18.2998 8.39396 17.8821 8.38081 17.5 8.51362L0.0339355 16.3065L16.0573 4.32465Z" stroke="#E30016" stroke-width="0.23" stroke-miterlimit="3.86"/>
</g>
<defs>
<clipPath id="clip0_301_734">
<rect width="64" height="84" fill="white"/>
</clipPath>
</defs>
</svg>
