<svg width="20" height="20" viewBox="0 0 20 20" fill="none" xmlns="http://www.w3.org/2000/svg">
<path fill-rule="evenodd" clip-rule="evenodd" d="M17 11C18.6569 11 20 12.3432 20 14V17C20 18.6569 18.6569 20 17 20H14C12.3431 20 11 18.6569 11 17V14C11 12.3432 12.3431 11 14 11H17ZM6 11C7.65685 11 9 12.3432 9 14V17C9 18.6569 7.65685 20 6 20H3C1.34315 20 0 18.6569 0 17V14C0 12.3432 1.34315 11 3 11H6ZM17 13H14C13.4477 13 13 13.4477 13 14V17C13 17.5523 13.4477 18 14 18H17C17.5523 18 18 17.5523 18 17V14C18 13.4477 17.5523 13 17 13ZM6 13H3C2.44772 13 2 13.4477 2 14V17C2 17.5523 2.44772 18 3 18H6C6.55228 18 7 17.5523 7 17V14C7 13.4477 6.55228 13 6 13ZM6 3.05176e-05C7.65685 3.05176e-05 9 1.34318 9 3.00003V6.00003C9 7.65688 7.65685 9.00003 6 9.00003H3C1.34315 9.00003 0 7.65688 0 6.00003V3.00003C0 1.34318 1.34315 3.05176e-05 3 3.05176e-05H6ZM17 3.05176e-05C18.6569 3.05176e-05 20 1.34318 20 3.00003V6.00003C20 7.65688 18.6569 9.00003 17 9.00003H14C12.3431 9.00003 11 7.65688 11 6.00003V3.00003C11 1.34318 12.3431 3.05176e-05 14 3.05176e-05H17ZM6 2.00003H3C2.44772 2.00003 2 2.44775 2 3.00003V6.00003C2 6.55232 2.44772 7.00003 3 7.00003H6C6.55228 7.00003 7 6.55232 7 6.00003V3.00003C7 2.44775 6.55228 2.00003 6 2.00003ZM17 2.00003H14C13.4477 2.00003 13 2.44775 13 3.00003V6.00003C13 6.55232 13.4477 7.00003 14 7.00003H17C17.5523 7.00003 18 6.55232 18 6.00003V3.00003C18 2.44775 17.5523 2.00003 17 2.00003Z" fill="white"/>
</svg>
