<svg width="20" height="20" viewBox="0 0 20 20" fill="none" xmlns="http://www.w3.org/2000/svg">
<path opacity="0.4" d="M18.3472 11.4948L18.3254 11.596L18.2923 11.416C18.3036 11.4497 18.3254 11.4715 18.3367 11.506C18.4269 10.9998 18.4728 10.4838 18.4728 9.967C18.4728 8.82025 18.2465 7.708 17.7975 6.652C17.3696 5.641 16.7484 4.7305 15.9723 3.955C15.1834 3.18025 14.2825 2.563 13.2687 2.1355C12.2775 1.66225 11.1623 1.438 10.0139 1.438C9.47245 1.438 8.92797 1.4905 8.4023 1.591L8.49179 1.636L8.31205 1.61125L8.40155 1.5925C7.67658 1.2055 6.86363 1 6.03789 1C4.6925 1 3.42833 1.5235 2.47625 2.47525C1.52417 3.42625 1 4.69225 1 6.037C1 6.89425 1.21959 7.73575 1.63472 8.4805L1.64976 8.3875L1.68059 8.56675L1.63472 8.4805C1.54899 8.96425 1.50612 9.45475 1.50612 9.94675C1.50612 11.0942 1.73173 12.2095 2.17092 13.2587C2.59808 14.2802 3.20723 15.1908 3.99611 15.9655C4.77372 16.753 5.68594 17.3583 6.69969 17.797C7.74803 18.247 8.8633 18.4705 10.0117 18.4705C10.5072 18.4705 11.0149 18.4255 11.4984 18.3363L11.4089 18.2897L11.5894 18.3243L11.4879 18.3468C12.2414 18.7735 13.0867 19 13.9651 19C15.306 19 16.5664 18.4825 17.5245 17.5278C18.4713 16.5835 19 15.3145 19 13.966C19 13.1125 18.7751 12.2695 18.3585 11.5165" fill="#808B9D"/>
<path d="M10.0529 14.9993C7.25139 14.9993 6 13.6213 6 12.5872C6 12.0545 6.39067 11.6848 6.92827 11.6848C8.12813 11.6848 7.81476 13.4096 10.0529 13.4096C11.1957 13.4096 11.8287 12.7864 11.8287 12.1485C11.8287 11.7648 11.6414 11.3408 10.8858 11.1535L8.39554 10.5303C6.38997 10.0261 6.02577 8.93844 6.02577 7.91832C6.02577 5.7966 8.01811 5 9.88997 5C11.6107 5 13.6455 5.95606 13.6455 7.22756C13.6455 7.77348 13.1664 8.09101 12.6337 8.09101C11.6107 8.09101 11.7994 6.67259 9.73398 6.67259C8.711 6.67259 8.13788 7.13495 8.13788 7.79855C8.13788 8.46215 8.94081 8.67454 9.63997 8.834L11.4763 9.24274C13.4896 9.69466 14 10.8763 14 11.9891C14 13.7132 12.6755 15 10.0153 15L10.0529 14.9993Z" fill="#808B9D"/>
</svg>
