<svg width="20" height="18" viewBox="0 0 20 18" fill="none" xmlns="http://www.w3.org/2000/svg">
<path d="M19.9617 2.8079C19.2242 3.13207 18.4367 3.3529 17.6075 3.45374C18.4525 2.94457 19.1025 2.14207 19.41 1.18457C18.6175 1.64707 17.7392 1.98374 16.8042 2.17124C16.0575 1.37207 14.9933 0.87207 13.8117 0.87207C11.5475 0.87207 9.71167 2.7079 9.71167 4.96957C9.71167 5.29457 9.74917 5.60707 9.8175 5.90624C6.40917 5.7454 3.38833 4.10874 1.36667 1.63457C1.01083 2.23624 0.811667 2.9354 0.811667 3.69707C0.811667 5.12207 1.53667 6.37457 2.635 7.1104C1.9625 7.08874 1.33 6.90374 0.778333 6.59707V6.6479C0.778333 8.6354 2.18917 10.2929 4.06667 10.6704C3.7225 10.7629 3.35917 10.8129 2.98667 10.8129C2.725 10.8129 2.47417 10.7879 2.22333 10.7412C2.74917 12.3687 4.26083 13.5554 6.06 13.5887C4.66 14.6879 2.88583 15.3429 0.975 15.3429C0.65 15.3429 0.325833 15.3237 0 15.2871C1.82417 16.4487 3.97333 17.1279 6.2975 17.1279C13.8425 17.1279 17.9633 10.8812 17.9633 5.4729C17.9633 5.29874 17.9633 5.1229 17.9508 4.9479C18.7517 4.37374 19.4508 3.6479 20.0008 2.82457L19.9617 2.8079Z" fill="#1DADE8"/>
</svg>
