<svg width="48" height="48" viewBox="0 0 48 48" fill="none" xmlns="http://www.w3.org/2000/svg">
<path opacity="0.4" d="M43.3 20.0599C42.52 18.9399 41.14 18.2999 39.56 18.2999H31.36C30.82 18.2999 30.32 18.08 29.98 17.68C29.62 17.28 29.48 16.7199 29.56 16.1399L30.58 9.57995C31.02 7.61995 29.72 5.41995 27.76 4.75995C25.94 4.07995 23.8 4.99995 22.94 6.29995L14.5 18.84L14.26 19.24V36.9199L14.56 37.22L20.9 42.1199C21.74 42.9599 23.64 43.4199 24.98 43.4199H32.78C35.46 43.4199 38.16 41.3999 38.76 38.9399L43.68 23.9599C44.2 22.5399 44.06 21.16 43.3 20.0599Z" fill="#B3BBC9"/>
<path d="M10.42 12.76H8.36C5.26 12.76 4 13.96 4 16.92V37.04C4 40 5.26 41.2 8.36 41.2H10.42C13.52 41.2 14.78 40 14.78 37.04V16.92C14.78 13.96 13.52 12.76 10.42 12.76Z" fill="#B3BBC9"/>
</svg>
