<svg width="48" height="48" viewBox="0 0 48 48" fill="none" xmlns="http://www.w3.org/2000/svg">
<path opacity="0.4" d="M36.08 27.1C35.24 27.92 34.76 29.1 34.88 30.36C35.06 32.52 37.04 34.1 39.2 34.1H43V36.48C43 40.62 39.62 44 35.48 44H12.52C8.38 44 5 40.62 5 36.48V23.02C5 18.88 8.38 15.5 12.52 15.5H35.48C39.62 15.5 43 18.88 43 23.02V25.9H38.96C37.84 25.9 36.82 26.34 36.08 27.1Z" fill="#B3BBC9"/>
<path d="M29.7 7.9V15.5H12.52C8.38 15.5 5 18.88 5 23.02V15.68C5 13.3 6.46 11.1799 8.68 10.3399L24.56 4.33994C27.04 3.41994 29.7 5.24 29.7 7.9Z" fill="#B3BBC9"/>
<path d="M45.1201 27.9399V32.0601C45.1201 33.1601 44.2401 34.06 43.1201 34.1H39.2001C37.0401 34.1 35.0601 32.52 34.8801 30.36C34.7601 29.1 35.2401 27.92 36.0801 27.1C36.8201 26.34 37.8401 25.9 38.9601 25.9H43.1201C44.2401 25.94 45.1201 26.8399 45.1201 27.9399Z" fill="#B3BBC9"/>
</svg>
