<svg width="48" height="48" viewBox="0 0 48 48" fill="none" xmlns="http://www.w3.org/2000/svg">
<path d="M32.5 45C34.433 45 36 43.433 36 41.5C36 39.567 34.433 38 32.5 38C30.567 38 29 39.567 29 41.5C29 43.433 30.567 45 32.5 45Z" fill="#B3BBC9"/>
<path d="M16.5 45C18.433 45 20 43.433 20 41.5C20 39.567 18.433 38 16.5 38C14.567 38 13 39.567 13 41.5C13 43.433 14.567 45 16.5 45Z" fill="#B3BBC9"/>
<path opacity="0.4" d="M9.67999 7.88L9.28 12.78C9.2 13.72 9.94 14.5 10.88 14.5H41.5C42.34 14.5 43.04 13.86 43.1 13.02C43.36 9.47999 40.66 6.60001 37.12 6.60001H12.58C12.38 5.72001 11.98 4.87999 11.36 4.17999C10.38 3.11999 8.98001 2.5 7.54001 2.5H4C3.18 2.5 2.5 3.18 2.5 4C2.5 4.82 3.18 5.5 4 5.5H7.48001C8.10001 5.5 8.68001 5.76001 9.10001 6.20001C9.52001 6.66001 9.71999 7.26 9.67999 7.88Z" fill="#B3BBC9"/>
<path d="M41.0201 17.5H10.3401C9.50011 17.5 8.82011 18.14 8.74011 18.96L8.02011 27.66C7.74011 31.06 10.4201 34 13.8401 34H36.0801C39.0801 34 41.7201 31.54 41.9401 28.54L42.6001 19.2C42.6801 18.28 41.9601 17.5 41.0201 17.5Z" fill="#B3BBC9"/>
</svg>
