<svg width="176" height="87" viewBox="0 0 176 87" fill="none" xmlns="http://www.w3.org/2000/svg">
<path d="M175.159 65.7236V86.0357H113.78V82.1319H116.67V80.8916C119.582 80.8916 120.914 80.2003 120.914 77.6384V73.6939C120.914 71.1117 119.643 70.4611 116.67 70.4611V69.5055V65.7236H175.159ZM169.337 78.8787V77.5774C169.337 75.0562 168.251 74.3852 165.319 74.3852H164.827V69.5055H161.875V82.1319H164.827C168.066 82.1319 169.337 81.6439 169.337 78.8787ZM144.798 71.742V69.5055H137.807V71.742H139.816V82.1319H142.789V71.742H144.798Z" fill="#0279BD"/>
<path d="M174.831 26.9692V56.4715H169.071V37.9691H168.886L165.914 56.4715H161.321L158.369 37.9691H158.164V56.4715H152.424V26.9692H159.886L163.617 47.688L167.369 26.9692H174.831Z" fill="#0279BD"/>
<path d="M148.652 32.2353V51.1851C148.652 53.259 148.406 56.4715 144.388 56.4715H139.652C135.613 56.4715 135.388 53.259 135.388 51.1851V32.2353C135.388 30.1614 135.613 26.9692 139.652 26.9692H144.388C148.406 26.9692 148.652 30.1614 148.652 32.2353ZM142.932 51.6934V31.5847C142.932 31.0764 142.563 30.6291 142.03 30.6291C141.702 30.6291 141.128 30.8324 141.128 31.5847V51.6934C141.128 52.4457 141.702 52.6491 142.03 52.6491C142.563 52.6491 142.932 52.2017 142.932 51.6934Z" fill="#0279BD"/>
<path d="M131.616 32.2353V41.1612C131.616 43.2352 131.37 46.4273 127.351 46.4273H124.071V56.4715H118.331V26.9692H127.351C131.37 26.9692 131.616 30.1614 131.616 32.2353ZM125.855 41.7102V32.093C125.855 31.178 125.424 30.6291 124.789 30.6291H124.071V43.1742H124.789C125.424 43.1742 125.855 42.6455 125.855 41.7102Z" fill="#0279BD"/>
<path d="M116.67 65.7236V69.5055H113.78V70.4611C110.787 70.4611 109.516 71.1117 109.516 73.6939V77.6384C109.516 80.2003 110.848 80.8916 113.78 80.8916V82.1319V86.0357H86.4111V82.1319H92.2744V79.9156H89.3838V76.6015H91.8439V74.4869H89.3838V71.742H92.0079V69.5055V65.7236H116.67Z" fill="#0279BD"/>
<path d="M114.559 26.9692V56.4715H108.819V30.6291H107.015V56.4715H101.254V26.9692H114.559Z" fill="#0279BD"/>
<path d="M97.502 45.2481V51.1851C97.502 53.259 97.2354 56.4715 93.2173 56.4715H88.4611C84.4429 56.4715 84.1969 53.259 84.1969 51.1851V46.1427H89.9576V51.6934C89.9576 52.4457 90.5112 52.6491 90.8597 52.6491C91.3722 52.6491 91.7412 52.2017 91.7412 51.6934V44.8211C91.7412 43.9061 91.5772 42.8895 89.4451 42.8895H87.108V39.6567H89.5271C91.1672 39.6567 91.7412 39.2703 91.7412 37.4608V31.5847C91.7412 31.0764 91.3722 30.6291 90.8597 30.6291C90.5112 30.6291 89.9576 30.8324 89.9576 31.5847V36.4035H84.1969V32.2353C84.1969 30.1614 84.4429 26.9692 88.4611 26.9692H93.2173C97.2354 26.9692 97.502 30.1614 97.502 32.2353V36.9524C97.502 40.1446 95.3289 41.0393 93.5863 40.9579V41.2426C97.4405 41.1613 97.502 44.1908 97.502 45.2481Z" fill="#0279BD"/>
<path d="M92.0078 65.7236V69.5055H86.4111V82.1319V86.0357H55.4957V65.7236H92.0078ZM68.5753 82.1319V69.5055H65.6027V74.3852H64.0856V69.5055H61.0925V82.1319H64.0856V76.6015H65.6027V82.1319H68.5753Z" fill="#0279BD"/>
<path d="M78.7437 26.9692L81.7369 56.4715H76.1196L75.5866 48.6232H72.8805L72.3475 56.4715H66.7302L69.7233 26.9692H78.7437ZM75.3816 45.3701L74.3976 30.6291H74.0695L73.0855 45.3701H75.3816Z" fill="#0279BD"/>
<path d="M66.5865 26.9692V30.6291H61.3793V56.4715H55.639V26.9692H66.5865Z" fill="#0279BD"/>
<path d="M51.9492 56.6143V76.784C46.5165 82.5178 38.8081 86.1166 30.2387 86.1166C13.8175 86.1166 0.512451 72.9005 0.512451 56.6143C0.512451 40.3484 13.8175 27.1323 30.2387 27.1323V27.8643V49.315C25.9746 49.315 21.7104 50.9212 18.4302 54.1541C17.6512 54.9267 16.9747 55.7603 16.3801 56.6143C12.0135 63.0597 12.69 71.8839 18.4302 77.577C21.7104 80.8098 25.9746 82.4364 30.2387 82.4364C34.5029 82.4364 38.7466 80.8302 42.0063 77.6177C42.0268 77.5973 42.0473 77.5973 42.0473 77.577C42.0678 77.5567 42.0883 77.5567 42.1088 77.5363C45.3684 74.3035 45.3684 69.0374 42.1088 65.8045C38.8286 62.5717 33.5394 62.5717 30.2797 65.8045C30.2592 65.8249 30.2592 65.8249 30.2387 65.8452V56.6143H41.0427H44.0973H51.9492V56.6143Z" fill="#0279BD"/>
<path d="M48.0333 16.2749C49.8374 24.1842 49.8169 29.0437 49.0174 34.5944C47.6028 44.5776 43.0106 52.2226 41.0425 54.7845C39.669 53.0359 37.5984 49.498 36.2043 46.1839C36.2043 46.1839 33.5802 39.8808 32.9037 33.7404C32.6782 31.8089 32.5552 29.857 32.5552 27.8644C32.5552 23.5743 33.1292 19.1418 34.5233 14.3433C36.3683 8.0403 40.0175 2.34723 41.0015 0.883301C41.6371 1.92025 46.2088 8.36562 48.0333 16.2749ZM47.5003 29.7146C47.5618 26.6851 47.2543 21.5613 45.7782 16.2139C44.2817 10.8665 41.4116 5.76307 40.981 5.11244C40.5505 5.76307 38.2544 9.91088 36.2453 16.3766C35.7123 18.3082 34.7488 22.517 34.5848 26.6241C34.3798 31.5852 35.0768 36.526 35.3433 37.9086C35.3433 36.282 35.3843 30.7922 36.4093 26.2581C37.4344 21.724 39.382 16.4986 40.981 13.835C42.7031 16.6409 44.8557 22.6796 45.6142 26.2785C46.3728 29.8976 46.7623 34.5334 46.5983 37.8069C47.0698 35.916 47.4183 32.7238 47.5003 29.7146ZM41.0015 52.8122C41.9446 51.1043 43.5232 47.3631 43.4001 42.6054C43.1951 37.7459 41.5346 34.1878 41.0425 33.3541C40.4685 34.1878 38.5619 38.2746 38.5824 43.0323C38.7259 47.9528 40.12 51.145 41.0015 52.8122Z" fill="#0279BD"/>
<path d="M165.585 76.6421H164.929V79.9359H165.585C166.241 79.9359 166.446 79.7733 166.446 79.0413V77.5164C166.446 76.8047 166.241 76.6421 165.585 76.6421Z" fill="#0279BD"/>
<path d="M118.064 73.8363V77.8824C118.064 78.6347 117.818 78.8177 117.162 78.8177H116.691V72.9417H117.162C117.818 72.9417 118.064 73.084 118.064 73.8363Z" fill="white"/>
<path d="M113.821 72.9417V78.8177H113.349C112.673 78.8177 112.447 78.655 112.447 77.9027V73.8769C112.447 73.1246 112.673 72.9417 113.349 72.9417H113.821Z" fill="white"/>
<path d="M118.064 73.8363V77.8824C118.064 78.6347 117.818 78.8177 117.162 78.8177H116.691V72.9417H117.162C117.818 72.9417 118.064 73.084 118.064 73.8363Z" fill="#0279BD"/>
<path d="M113.821 72.9417V78.8177H113.349C112.673 78.8177 112.447 78.655 112.447 77.9027V73.8769C112.447 73.1246 112.673 72.9417 113.349 72.9417H113.821Z" fill="#0279BD"/>
</svg>
