<svg width="157" height="108" viewBox="0 0 157 108" fill="none" xmlns="http://www.w3.org/2000/svg">
<path fill-rule="evenodd" clip-rule="evenodd" d="M63.451 49.8477C65.8301 32.42 73.6725 0.987427 88.6294 0.987427C106.091 0.987427 126.607 59.0952 126.602 107.203H110.5C110.5 56.7453 98.0247 11.2816 89.0483 11.2797C79.6846 11.2787 71.4784 42.2047 71.4784 101.125H55.3978C55.3978 42.2047 47.2414 11.2797 37.8278 11.2797C28.8677 11.2797 16.4016 56.7537 16.4016 107.203H0.299316C0.314435 59.0536 20.7788 0.981514 38.2716 0.987427C53.2077 0.992332 61.0529 32.416 63.451 49.8477Z" fill="#FDC82F"/>
<path fill-rule="evenodd" clip-rule="evenodd" d="M52.927 87.8694H127.098V69.3004H52.927V87.8694Z" fill="white"/>
<path fill-rule="evenodd" clip-rule="evenodd" d="M119.616 86.0063H124.284V70.7948H119.616V86.0063Z" fill="#D52B1E"/>
<path fill-rule="evenodd" clip-rule="evenodd" d="M141.447 70.7949H144.625L143.546 74.9404H141.235L141.447 70.7949Z" fill="#D52B1E"/>
<path fill-rule="evenodd" clip-rule="evenodd" d="M150.102 73.0482C153.207 73.0482 156.124 73.8244 156.138 76.8438H151.706C151.706 75.8036 151.093 75.3308 150.058 75.3308C149.445 75.3308 148.615 75.5834 148.615 76.5366C148.616 78.1185 151.141 77.8021 153.285 78.4327C155.211 78.9986 156.546 80.137 156.546 81.9753C156.546 84.7914 154.315 86.3495 150.102 86.3661C145.684 86.3834 144.022 84.8057 144.008 81.9753H148.499C148.499 83.0436 149.169 83.6796 150.116 83.6796C151.25 83.6796 151.765 83.2531 151.765 82.4589C151.765 80.8053 148.669 80.8481 146.843 80.2564C145.602 79.8533 144.473 78.9416 144.473 77.0059C144.473 75.3886 145.698 73.0482 150.102 73.0482Z" fill="#D52B1E"/>
<path fill-rule="evenodd" clip-rule="evenodd" d="M54.5171 81.3967C53.7426 84.4208 51.2104 86.3811 48.0522 86.3818C44.2392 86.3818 41.3387 83.5233 41.3425 79.3867C41.3454 75.2554 43.9236 72.3965 48.0522 72.3926C51.4754 72.3897 53.8324 74.3599 54.54 77.3882L50.1725 77.3886C49.8375 76.4785 49.1939 75.7686 48.0522 75.7678C46.1251 75.7674 45.6168 77.7909 45.6176 79.3867C45.618 80.9836 46.1251 83.0059 48.0522 83.0059C49.1893 83.0059 49.8316 82.3022 50.1678 81.3971L54.5171 81.3967Z" fill="#D52B1E"/>
<path fill-rule="evenodd" clip-rule="evenodd" d="M22.3185 70.7964H27.8947L30.322 79.7828L32.7492 70.7964H38.3292L40.7673 86.3818H36.1666L34.9514 77.2735L32.4371 86.3818H28.2068L25.6928 77.2735L24.4769 86.3818H19.873L22.3185 70.7964Z" fill="#D52B1E"/>
<path fill-rule="evenodd" clip-rule="evenodd" d="M93.8416 78.5548C93.8416 79.0865 93.8416 86.0093 93.8416 86.0093H89.2275V72.7196H93.8416V73.7578C95.0095 72.8563 96.065 72.3927 98.4596 72.3927C101.06 72.3927 103.155 74.1144 103.156 75.9219V86.0093H98.5093V78.6941C98.5113 77.4791 97.413 76.4885 96.2172 76.4885C94.6792 76.4885 93.9142 77.8368 93.8416 78.5548Z" fill="#D52B1E"/>
<path fill-rule="evenodd" clip-rule="evenodd" d="M135.007 74.0371V70.7944H139.673V86.0059H135.007V85.2679C134.394 85.8161 133.59 86.3762 131.578 86.3762C129.315 86.3762 125.72 85.1305 125.717 79.7788C125.714 74.4347 129.311 73.0477 131.87 73.0477C133.728 73.0477 134.606 73.6832 135.007 74.0371ZM130.164 79.7788C130.164 81.8588 131.141 83.1878 132.745 83.1878C133.707 83.1878 134.512 82.7724 135.009 81.9058V77.9155C134.76 77.0346 133.896 76.3851 132.745 76.3848C131.138 76.3838 130.164 77.699 130.164 79.7788Z" fill="#D52B1E"/>
<path fill-rule="evenodd" clip-rule="evenodd" d="M73.7363 79.3885C73.7402 75.2572 76.4446 72.3976 80.7754 72.3938C85.1079 72.3899 87.8118 75.2572 87.8148 79.3885C87.8187 83.5244 85.1069 86.3826 80.7754 86.3826C76.4488 86.383 73.7328 83.5244 73.7363 79.3885ZM83.4495 79.3885C83.4505 77.792 82.8924 75.7693 80.7754 75.7693C78.6589 75.7684 78.1008 77.792 78.1012 79.3885C78.1021 80.9847 78.6589 83.0074 80.7754 83.0074C82.8924 83.0074 83.4495 80.9847 83.4495 79.3885Z" fill="#D52B1E"/>
<path fill-rule="evenodd" clip-rule="evenodd" d="M56.1436 70.7964H64.1617C69.1782 70.7964 72.5972 73.8833 72.5972 78.589C72.5972 83.2943 69.179 86.3818 64.1617 86.3818H56.1436V70.7964ZM61.4477 82.6975H63.8718C65.4426 82.6975 67.3545 81.7486 67.3545 78.589C67.3545 75.4332 65.4426 74.4808 63.8718 74.4808H61.4477V82.6975Z" fill="#D52B1E"/>
<path fill-rule="evenodd" clip-rule="evenodd" d="M111.479 72.3942C114.791 72.3914 117.521 73.5981 117.734 76.2472V86.0069H113.063V84.6911C111.929 85.6539 110.799 86.3762 108.758 86.3762C106.38 86.3762 104.464 84.514 104.464 82.3312C104.464 80.1479 105.821 77.7225 111.254 77.7237C112.654 77.724 113.062 77.1781 113.063 76.5279C113.065 75.7294 112.136 75.284 111.358 75.284C110.58 75.284 109.698 75.605 109.698 76.4397H105.322C105.322 74.4813 106.652 72.3989 111.479 72.3942ZM111.221 79.883C110.143 79.883 109.147 80.4528 109.147 81.5442C109.147 82.251 109.568 82.8612 110.67 82.8609C111.723 82.8609 112.847 82.2418 113.063 80.9583V79.7425C112.707 79.9354 111.901 79.883 111.221 79.883Z" fill="#D52B1E"/>
</svg>
